<?xml version="1.0"?>
<svg xmlns="http://www.w3.org/2000/svg">
    <path fill="#f2f2f2" fill-rule="evenodd" stroke="#6cbade" stroke-width="5" stroke-linejoin="round" d="m297.234436,289.39328l69.378204,52.646423l-38.206512,-91.648178l100.127991,22.912643l-59.286835,-51.551346l110.667603,0l-102.762634,-31.50473l90.905701,-39.990524l-76.54599,-16.124939l39.669952,-49.350479l-62.513641,9.220222l22.976654,-62.703733l-59.588989,38.896658l-14.00705,-57.781347l-42.355133,51.785398c0,-3.596859 -24.86087,-51.050979 -26.178177,-51.050979c-1.317322,0 -25.624466,50.084891 -25.624466,50.084891l-44.359116,-46.255171l-11.132904,54.416166l-41.553085,-46.591936c0,0 -0.908607,52.051706 -3.543228,52.051706c-2.634628,0 -62.923359,-32.271385 -62.923359,-32.271385c0,0 14.466282,59.281227 14.466282,60.713051c0,1.431808 -65.412853,-10.326035 -65.412853,-10.326035l53.871471,42.761024l-57.086201,19.512817c0,0 47.85104,36.207382 46.533509,37.639206c-1.317429,1.431808 -42.304039,37.824295 -42.304039,37.824295c0,0 73.053387,-1.791275 71.736073,-1.791275c-0.14502,1.198959 -69.851623,54.54274 -69.851623,55.974564c0,1.431824 75.847114,-19.081696 75.847114,-19.081696l-51.105114,74.533203l85.213551,-60.445526l-18.009521,65.60318l50.208473,-41.189484l2.792831,44.053131l48.760422,-39.524811l30.520981,54.423523l17.341827,-52.723022l35.111526,26.904755l8.220306,-50.050262z"/>
</svg>